<svg width="32" height="32" viewBox="0 0 32 32" fill="none" xmlns="http://www.w3.org/2000/svg">
<g clip-path="url(#clip0_408_27)">
<mask id="mask0_408_27" style="mask-type:luminance" maskUnits="userSpaceOnUse" x="0" y="0" width="32" height="32">
<path d="M32 0H0V32H32V0Z" fill="white"/>
</mask>
<g mask="url(#mask0_408_27)">
<path d="M16.0003 2.66602C8.64033 2.66602 2.66699 8.63935 2.66699 15.9993C2.66699 23.3593 8.64033 29.3327 16.0003 29.3327H22.667V26.666H16.0003C10.2137 26.666 5.33366 21.786 5.33366 15.9993C5.33366 10.2127 10.2137 5.33268 16.0003 5.33268C21.787 5.33268 26.667 10.2127 26.667 15.9993V17.906C26.667 18.9593 25.7203 19.9993 24.667 19.9993C23.6137 19.9993 22.667 18.9593 22.667 17.906V15.9993C22.667 12.3193 19.6803 9.33268 16.0003 9.33268C12.3203 9.33268 9.33366 12.3193 9.33366 15.9993C9.33366 19.6793 12.3203 22.666 16.0003 22.666C17.8403 22.666 19.5203 21.9193 20.7203 20.706C21.587 21.8927 23.0803 22.666 24.667 22.666C27.2937 22.666 29.3337 20.5327 29.3337 17.906V15.9993C29.3337 8.63935 23.3603 2.66602 16.0003 2.66602ZM16.0003 19.9993C13.787 19.9993 12.0003 18.2127 12.0003 15.9993C12.0003 13.786 13.787 11.9993 16.0003 11.9993C18.2137 11.9993 20.0003 13.786 20.0003 15.9993C20.0003 18.2127 18.2137 19.9993 16.0003 19.9993Z" fill="#FAFAFA"/>
</g>
</g>
<defs>
<clipPath id="clip0_408_27">
<rect width="32" height="32" fill="white"/>
</clipPath>
</defs>
</svg>
