<svg width="16" height="16" viewBox="0 0 16 16" fill="none" xmlns="http://www.w3.org/2000/svg">
<g clip-path="url(#clip0_408_10)">
<mask id="mask0_408_10" style="mask-type:luminance" maskUnits="userSpaceOnUse" x="0" y="0" width="16" height="16">
<path d="M16 0H0V16H16V0Z" fill="white"/>
</mask>
<g mask="url(#mask0_408_10)">
<path d="M7.99967 1.33398C4.31967 1.33398 1.33301 4.32065 1.33301 8.00065C1.33301 11.6807 4.31967 14.6673 7.99967 14.6673H11.333V13.334H7.99967C5.10634 13.334 2.66634 10.894 2.66634 8.00065C2.66634 5.10732 5.10634 2.66732 7.99967 2.66732C10.893 2.66732 13.333 5.10732 13.333 8.00065V8.95398C13.333 9.48065 12.8597 10.0007 12.333 10.0007C11.8063 10.0007 11.333 9.48065 11.333 8.95398V8.00065C11.333 6.16065 9.83967 4.66732 7.99967 4.66732C6.15967 4.66732 4.66634 6.16065 4.66634 8.00065C4.66634 9.84065 6.15967 11.334 7.99967 11.334C8.91967 11.334 9.75967 10.9607 10.3597 10.354C10.793 10.9473 11.5397 11.334 12.333 11.334C13.6463 11.334 14.6663 10.2673 14.6663 8.95398V8.00065C14.6663 4.32065 11.6797 1.33398 7.99967 1.33398ZM7.99967 10.0007C6.89301 10.0007 5.99967 9.10732 5.99967 8.00065C5.99967 6.89398 6.89301 6.00065 7.99967 6.00065C9.10634 6.00065 9.99967 6.89398 9.99967 8.00065C9.99967 9.10732 9.10634 10.0007 7.99967 10.0007Z" fill="#FAFAFA"/>
</g>
</g>
<defs>
<clipPath id="clip0_408_10">
<rect width="16" height="16" fill="white"/>
</clipPath>
</defs>
</svg>
