<svg width="64" height="64" viewBox="0 0 64 64" fill="none" xmlns="http://www.w3.org/2000/svg">
<g clip-path="url(#clip0_409_36)">
<mask id="mask0_409_36" style="mask-type:luminance" maskUnits="userSpaceOnUse" x="0" y="0" width="64" height="64">
<path d="M64 0H0V64H64V0Z" fill="white"/>
</mask>
<g mask="url(#mask0_409_36)">
<path d="M31.9997 5.33398C17.2797 5.33398 5.33301 17.2807 5.33301 32.0006C5.33301 46.7206 17.2797 58.6673 31.9997 58.6673H45.333V53.334H31.9997C20.4263 53.334 10.6663 43.574 10.6663 32.0006C10.6663 20.4273 20.4263 10.6673 31.9997 10.6673C43.573 10.6673 53.333 20.4273 53.333 32.0006V35.814C53.333 37.9206 51.4397 40.0006 49.333 40.0006C47.2263 40.0006 45.333 37.9206 45.333 35.814V32.0006C45.333 24.6406 39.3597 18.6673 31.9997 18.6673C24.6397 18.6673 18.6663 24.6406 18.6663 32.0006C18.6663 39.3606 24.6397 45.334 31.9997 45.334C35.6797 45.334 39.0397 43.8406 41.4397 41.414C43.173 43.7873 46.1597 45.334 49.333 45.334C54.5863 45.334 58.6663 41.0673 58.6663 35.814V32.0006C58.6663 17.2807 46.7197 5.33398 31.9997 5.33398ZM31.9997 40.0006C27.573 40.0006 23.9997 36.4273 23.9997 32.0006C23.9997 27.574 27.573 24.0006 31.9997 24.0006C36.4263 24.0006 39.9997 27.574 39.9997 32.0006C39.9997 36.4273 36.4263 40.0006 31.9997 40.0006Z" fill="black"/>
</g>
</g>
<defs>
<clipPath id="clip0_409_36">
<rect width="64" height="64" fill="white"/>
</clipPath>
</defs>
</svg>
