<svg width="32" height="32" viewBox="0 0 32 32" fill="none" xmlns="http://www.w3.org/2000/svg">
<g clip-path="url(#clip0_408_20)">
<mask id="mask0_408_20" style="mask-type:luminance" maskUnits="userSpaceOnUse" x="0" y="0" width="32" height="32">
<path d="M32 0H0V32H32V0Z" fill="white"/>
</mask>
<g mask="url(#mask0_408_20)">
<path d="M16.0003 2.66602C10.8403 2.66602 6.66699 6.83935 6.66699 11.9993C6.66699 18.9993 16.0003 29.3327 16.0003 29.3327C16.0003 29.3327 25.3337 18.9993 25.3337 11.9993C25.3337 6.83935 21.1603 2.66602 16.0003 2.66602ZM16.0003 15.3327C14.1603 15.3327 12.667 13.8393 12.667 11.9993C12.667 10.1593 14.1603 8.66602 16.0003 8.66602C17.8403 8.66602 19.3337 10.1593 19.3337 11.9993C19.3337 13.8393 17.8403 15.3327 16.0003 15.3327Z" fill="black"/>
</g>
</g>
<defs>
<clipPath id="clip0_408_20">
<rect width="32" height="32" fill="white"/>
</clipPath>
</defs>
</svg>
